<?xml version="1.0" standalone="no"?><!DOCTYPE svg PUBLIC "-//W3C//DTD SVG 1.1//EN" "http://www.w3.org/Graphics/SVG/1.1/DTD/svg11.dtd"><svg t="1591338491259" class="icon" viewBox="0 0 1024 1024" version="1.1" xmlns="http://www.w3.org/2000/svg" p-id="2866" xmlns:xlink="http://www.w3.org/1999/xlink" width="200" height="200"><defs><style type="text/css"></style></defs><path d="M812.8 211.2c-166.4-166.4-437.333333-166.4-603.733333 0C42.666667 377.6 42.666667 646.4 209.066667 812.8c166.4 166.4 437.333333 166.4 603.733333 0s166.4-435.2 0-601.6z m-145.066667 413.866667c12.8 12.8 12.8 32 0 44.8-6.4 6.4-14.933333 8.533333-23.466666 8.533333s-17.066667-2.133333-23.466667-8.533333l-113.066667-113.066667-113.066666 113.066667c-6.4 6.4-14.933333 8.533333-23.466667 8.533333s-17.066667-2.133333-23.466667-8.533333c-12.8-12.8-12.8-32 0-44.8l113.066667-113.066667-113.066667-113.066667c-12.8-12.8-12.8-32 0-44.8 12.8-12.8 32-12.8 44.8 0l113.066667 113.066667 113.066667-113.066667c12.8-12.8 32-12.8 44.8 0 12.8 12.8 12.8 32 0 44.8l-106.666667 113.066667 110.933333 113.066667z" p-id="2867" fill="#DA3B20"></path></svg>