<?xml version="1.0" standalone="no"?><!DOCTYPE svg PUBLIC "-//W3C//DTD SVG 1.1//EN" "http://www.w3.org/Graphics/SVG/1.1/DTD/svg11.dtd"><svg t="1591338506632" class="icon" viewBox="0 0 1024 1024" version="1.1" xmlns="http://www.w3.org/2000/svg" p-id="3066" xmlns:xlink="http://www.w3.org/1999/xlink" width="200" height="200"><defs><style type="text/css"></style></defs><path d="M812.8 211.2c-166.4-166.4-437.333333-166.4-603.733333 0C42.666667 377.6 42.666667 646.4 209.066667 812.8c166.4 166.4 437.333333 166.4 603.733333 0s166.4-435.2 0-601.6z m-68.266667 328.533333c-12.8 106.666667-100.266667 194.133333-206.933333 206.933334-134.4 14.933333-247.466667-83.2-260.266667-209.066667-2.133333-12.8 8.533333-23.466667 21.333334-23.466667h192c12.8 0 21.333333-8.533333 21.333333-21.333333v-192c0-12.8 10.666667-23.466667 23.466667-21.333333 128 12.8 224 125.866667 209.066666 260.266666z" p-id="3067" fill="#2d8cf0"></path></svg>