<?xml version="1.0" standalone="no"?><!DOCTYPE svg PUBLIC "-//W3C//DTD SVG 1.1//EN" "http://www.w3.org/Graphics/SVG/1.1/DTD/svg11.dtd"><svg t="1591337938253" class="icon" viewBox="0 0 1024 1024" version="1.1" xmlns="http://www.w3.org/2000/svg" p-id="2482" xmlns:xlink="http://www.w3.org/1999/xlink" width="200" height="200"><defs><style type="text/css"></style></defs><path d="M812.8 211.2C729.6 128 618.666667 85.333333 509.866667 85.333333S292.266667 128 209.066667 211.2C42.666667 377.6 42.666667 646.4 209.066667 812.8c83.2 83.2 192 125.866667 300.8 125.866667s217.6-42.666667 300.8-125.866667c168.533333-166.4 168.533333-435.2 2.133333-601.6zM765.866667 768c-68.266667 68.266667-160 106.666667-256 106.666667s-187.733333-38.4-256-106.666667c-140.8-140.8-140.8-371.2 0-512 68.266667-68.266667 160-106.666667 256-106.666667s187.733333 38.4 256 106.666667c142.933333 140.8 142.933333 371.2 0 512z" p-id="2483" fill="#cccccc"></path><path d="M509.866667 512m-234.666667 0a234.666667 234.666667 0 1 0 469.333333 0 234.666667 234.666667 0 1 0-469.333333 0Z" p-id="2484" fill="#cccccc"></path></svg>