<?xml version="1.0" standalone="no"?><!DOCTYPE svg PUBLIC "-//W3C//DTD SVG 1.1//EN" "http://www.w3.org/Graphics/SVG/1.1/DTD/svg11.dtd"><svg t="1591338466923" class="icon" viewBox="0 0 1024 1024" version="1.1" xmlns="http://www.w3.org/2000/svg" p-id="2671" xmlns:xlink="http://www.w3.org/1999/xlink" width="200" height="200"><defs><style type="text/css"></style></defs><path d="M512 85.333333C277.333333 85.333333 85.333333 277.333333 85.333333 512s192 426.666667 426.666667 426.666667 426.666667-192 426.666667-426.666667S746.666667 85.333333 512 85.333333z m0 789.333334c-200.533333 0-362.666667-162.133333-362.666667-362.666667S311.466667 149.333333 512 149.333333s362.666667 162.133333 362.666667 362.666667-162.133333 362.666667-362.666667 362.666667z" p-id="2672" fill="#45ba75"></path><path d="M686.933333 356.266667L445.866667 599.466667 337.066667 490.666667c-12.8-12.8-32-12.8-44.8 0-12.8 12.8-12.8 32 0 44.8l132.266666 132.266666c6.4 6.4 14.933333 8.533333 23.466667 8.533334s17.066667-4.266667 23.466667-8.533334l264.533333-264.533333c12.8-12.8 12.8-32 0-44.8-14.933333-14.933333-36.266667-14.933333-49.066667-2.133333z" p-id="2673" fill="#45ba75"></path></svg>